<svg xmlns="http://www.w3.org/2000/svg" viewBox="0 0 24 24"><defs><style>.a{fill:#f8de40;}.b{fill:#e7c930;}.c{fill:#101820;}.d{fill:#864e20;}.e{fill:#f06880;}</style></defs><rect class="a" x="1" y="1" width="22" height="22" rx="7.656"/><path class="b" d="M23,13.938a14.69,14.69,0,0,1-12.406,6.531c-5.542,0-6.563-1-9.142-2.529A7.66,7.66,0,0,0,8.656,23h6.688A7.656,7.656,0,0,0,23,15.344Z"/><path class="c" d="M21.554,5.693c-.063-.289-2.888-.829-4.871-.829a5.584,5.584,0,0,0-3.3.7A3.125,3.125,0,0,1,12,5.919a3.125,3.125,0,0,1-1.381-.352,5.584,5.584,0,0,0-3.3-.7c-1.983,0-4.808.54-4.871.829s-.113,1.217.088,1.381.439.025.477.6.477,2.976,1.808,3.767,3.741.163,4.6-.365A4.3,4.3,0,0,0,11.3,8.568c.138-.892.351-1.507.7-1.507s.565.615.7,1.507a4.3,4.3,0,0,0,1.883,2.51c.854.528,3.264,1.155,4.6.365s1.77-3.189,1.808-3.767.276-.439.477-.6S21.617,5.981,21.554,5.693Z"/><path class="d" d="M13.308,14.129a1.183,1.183,0,0,0,.434-.908,1.34,1.34,0,0,0-.984-1.2.312.312,0,0,0-.414.228v.005a.312.312,0,0,0,.2.355c.215.081.575.269.575.613,0,.425-.5.608-.516.616a.317.317,0,0,0-.21.3.311.311,0,0,0,.226.292.717.717,0,0,1,.5.68c0,.269-.366.453-.584.54a.31.31,0,0,0-.145.119l-.1.024.061.243h0a.311.311,0,0,0,.412.2c.366-.146.98-.486.98-1.123A1.285,1.285,0,0,0,13.308,14.129Z"/><path class="e" d="M19.1,13.013a1.3,1.3,0,0,0-1.768.1l-.381.382-.382-.381a1.3,1.3,0,0,0-1.768-.1,1.249,1.249,0,0,0-.048,1.813l1.885,1.887a.441.441,0,0,0,.625,0l1.886-1.887A1.25,1.25,0,0,0,19.1,13.013Z"/></svg>