<svg xmlns="http://www.w3.org/2000/svg" viewBox="0 0 48 48"><defs><style>.cls-1{fill:#ffce52;}.cls-2{fill:#273941;}.cls-3{fill:#cf4054;}.cls-4{fill:#ffe369;}.cls-5{fill:#ffb32b;}.cls-6{fill:#f6fafd;}.cls-7{fill:#8a293d;}.cls-8{fill:#141e21;}.cls-9{fill:#f29410;}.cls-10{fill:#ae2d4c;}</style></defs><title>19-tongue</title><g id="_19-tongue" data-name="19-tongue"><circle class="cls-1" cx="24" cy="24" r="23"/><path class="cls-2" d="M37.553,19.9C35.764,19,33.717,19,30,19a1,1,0,0,1-1-1c0-2.265,3.568-5,8-5v2a7.807,7.807,0,0,0-5.419,2c3.058.018,4.963.151,6.866,1.1Z"/><path class="cls-2" d="M10.447,19.9l-.894-1.79c1.9-.951,3.808-1.084,6.866-1.1A7.807,7.807,0,0,0,11,15V13c4.432,0,8,2.735,8,5a1,1,0,0,1-1,1C14.283,19,12.236,19,10.447,19.9Z"/><path class="cls-2" d="M40,25a12.532,12.532,0,0,1-3.34,8.61A16.871,16.871,0,0,1,29,38.26V34a2.006,2.006,0,0,0-2-2H21a2.006,2.006,0,0,0-2,2v4.26C13.25,36.56,8,31.98,8,25c.47,0,2.26.5,5.04,1A61.8,61.8,0,0,0,24,27,66.172,66.172,0,0,0,40,25Z"/><path class="cls-3" d="M24,32h3a2.006,2.006,0,0,1,2,2v5a5,5,0,0,1-10,0V34a2.006,2.006,0,0,1,2-2Z"/><path class="cls-4" d="M24,4c12.15,0,22,8.507,22,19h.975a23,23,0,0,0-45.95,0H2C2,12.507,11.85,4,24,4Z"/><path class="cls-5" d="M46,23c0,10.493-9.85,19-22,19S2,33.493,2,23H1.025c-.014.332-.025.665-.025,1a23,23,0,0,0,46,0c0-.335-.011-.668-.025-1Z"/><ellipse class="cls-6" cx="37" cy="9" rx="0.825" ry="1.148" transform="translate(4.48 28.81) rotate(-45.02)"/><ellipse class="cls-6" cx="30.746" cy="4.5" rx="0.413" ry="0.574" transform="translate(5.829 23.067) rotate(-45.02)"/><ellipse class="cls-6" cx="34" cy="7" rx="1.65" ry="2.297" transform="translate(5.015 26.102) rotate(-45.02)"/><path class="cls-7" d="M24,42a5,5,0,0,1-5-5v2a5,5,0,0,0,10,0V37A5,5,0,0,1,24,42Z"/><path class="cls-8" d="M24,29a66.672,66.672,0,0,0,15.83-1.955A13.161,13.161,0,0,0,40,25a66.172,66.172,0,0,1-16,2,61.8,61.8,0,0,1-10.96-1c-2.78-.5-4.57-1-5.04-1a13.182,13.182,0,0,0,.166,2.016c.638.076,2.337.528,4.874.984A61.8,61.8,0,0,0,24,29Z"/><path class="cls-9" d="M24,44a5,5,0,0,1-5-5v2a5,5,0,0,0,10,0V39A5,5,0,0,1,24,44Z"/><path class="cls-10" d="M27,32H21a2.006,2.006,0,0,0-2,2v2a2.006,2.006,0,0,1,2-2h.432a2,2,0,0,1,1.988,1.779L24,41l.58-5.221A2,2,0,0,1,26.568,34H27a2.006,2.006,0,0,1,2,2V34A2.006,2.006,0,0,0,27,32Z"/><path class="cls-8" d="M19,34a1.974,1.974,0,0,1,.181-.819A2,2,0,0,0,18,35v2.931c.331.119.664.23,1,.329Z"/><path class="cls-8" d="M28.819,33.181A1.974,1.974,0,0,1,29,34v4.26c.336-.1.669-.21,1-.329V35A2,2,0,0,0,28.819,33.181Z"/></g></svg>