<svg xmlns="http://www.w3.org/2000/svg" viewBox="0 0 48 48"><defs><style>.cls-1{fill:#ffce52;}.cls-2{fill:#ffe369;}.cls-3{fill:#ffb32b;}.cls-4{fill:#f6fafd;}.cls-5{fill:#273941;}.cls-6{fill:#141e21;}.cls-7{fill:#3bc5f6;}.cls-8{fill:#00a3e1;}</style></defs><title>21-hungry</title><g id="_21-hungry" data-name="21-hungry"><circle class="cls-1" cx="24" cy="24" r="23"/><path class="cls-2" d="M24,4c12.15,0,22,8.507,22,19h.975a23,23,0,0,0-45.95,0H2C2,12.507,11.85,4,24,4Z"/><path class="cls-3" d="M46,23c0,10.493-9.85,19-22,19S2,33.493,2,23H1.025c-.014.332-.025.665-.025,1a23,23,0,0,0,46,0c0-.335-.011-.668-.025-1Z"/><ellipse class="cls-4" cx="37" cy="9" rx="0.825" ry="1.148" transform="translate(4.48 28.81) rotate(-45.02)"/><ellipse class="cls-4" cx="30.746" cy="4.5" rx="0.413" ry="0.574" transform="translate(5.829 23.067) rotate(-45.02)"/><ellipse class="cls-4" cx="34" cy="7" rx="1.65" ry="2.297" transform="translate(5.015 26.102) rotate(-45.02)"/><ellipse class="cls-5" cx="33" cy="16" rx="3" ry="4"/><ellipse class="cls-5" cx="15" cy="16" rx="3" ry="4"/><ellipse class="cls-6" cx="33" cy="16" rx="2" ry="3"/><ellipse class="cls-6" cx="15" cy="16" rx="2" ry="3"/><circle class="cls-4" cx="34" cy="15" r="1"/><circle class="cls-4" cx="16" cy="15" r="1"/><path class="cls-5" d="M9,26c0-.829,6.709-1,15-1s15,.171,15,1h0c0,6.75-8.178,11-15,11h0C17.178,37,9,32.75,9,26Z"/><path class="cls-7" d="M38.934,25.874C38.261,32.111,30.521,36,24,36S9.739,32.111,9.066,25.874h0A.2.2,0,0,0,9,26a7.728,7.728,0,0,0,.087,1.146,7.236,7.236,0,0,0,.163.767c.017.069.029.139.048.208a10.076,10.076,0,0,0,3.7,5.23V39a2,2,0,0,0,2,2h0a2,2,0,0,0,2-2V37a2,2,0,0,0,2,2h0a2,2,0,0,0,2-2v5a2,2,0,0,0,2,2h0a2,2,0,0,0,2-2V36.97c.05,0,.1-.011.152-.014.191-.013.383-.035.575-.054.234-.023.468-.046.7-.078.2-.027.392-.062.588-.1.232-.039.463-.079.7-.127.2-.041.394-.089.591-.136.228-.055.457-.111.684-.174.2-.055.391-.115.586-.176.224-.07.447-.143.669-.221.193-.068.384-.14.574-.214.217-.085.433-.173.646-.265.188-.081.373-.166.557-.253.209-.1.414-.2.618-.308.179-.093.357-.189.532-.289.2-.112.391-.23.583-.35.169-.106.337-.213.5-.324.185-.126.364-.258.542-.392.157-.117.313-.235.463-.358.171-.14.334-.286.5-.433.141-.128.283-.255.417-.388.155-.154.3-.315.443-.476.124-.138.25-.274.366-.416.136-.169.259-.345.383-.52.1-.146.213-.289.308-.44.116-.184.215-.377.318-.569.081-.152.17-.3.242-.457.095-.2.168-.416.246-.627.057-.154.124-.3.171-.461.072-.237.118-.484.169-.729.028-.141.07-.277.092-.42a8.259,8.259,0,0,0,.085-1.121c0-.029.006-.055.006-.084A.2.2,0,0,0,38.934,25.874Z"/><path class="cls-8" d="M19,38h0a2,2,0,0,1-2-2v1a2,2,0,0,0,2,2h0a2,2,0,0,0,2-2V36A2,2,0,0,1,19,38Z"/><path class="cls-8" d="M15,40h0a2,2,0,0,1-2-2v1a2,2,0,0,0,2,2h0a2,2,0,0,0,2-2V38A2,2,0,0,1,15,40Z"/><path class="cls-8" d="M23,43h0a2,2,0,0,1-2-2v1a2,2,0,0,0,2,2h0a2,2,0,0,0,2-2V41A2,2,0,0,1,23,43Z"/></g></svg>